HIERARCHY
ROOT joint_0
{
	OFFSET 0.000000 0.000000 0.000000
	CHANNELS 6 Xposition Yposition Zposition Zrotation Yrotation Xrotation 
	JOINT joint_1
	{
		OFFSET 7.566162 2.250183 114.799927
		CHANNELS 3 Zrotation Yrotation Xrotation
		JOINT joint_2
		{
			OFFSET -5.201660 -0.414001 104.936035
			CHANNELS 3 Zrotation Yrotation Xrotation
			JOINT joint_3
			{
				OFFSET -6.923584 -0.419739 104.718018
				CHANNELS 3 Zrotation Yrotation Xrotation
				JOINT joint_4
				{
					OFFSET 3.108887 2.881104 149.449951
					CHANNELS 3 Zrotation Yrotation Xrotation
					JOINT joint_5
					{
						OFFSET 19.988770 5.920349 90.786987
						CHANNELS 3 Zrotation Yrotation Xrotation
						End Site
						{
							OFFSET 0.000000 0.000000 0.000000
						}
					}
				}
				JOINT joint_6
				{
					OFFSET 9.283936 -30.015930 84.410034
					CHANNELS 3 Zrotation Yrotation Xrotation
					JOINT joint_7
					{
						OFFSET 47.243164 -155.716736 -23.241089
						CHANNELS 3 Zrotation Yrotation Xrotation
						JOINT joint_8
						{
							OFFSET 31.323730 -15.356873 -268.798950
							CHANNELS 3 Zrotation Yrotation Xrotation
							JOINT joint_9
							{
								OFFSET 28.122314 -2.114624 -262.450012
								CHANNELS 3 Zrotation Yrotation Xrotation
								End Site
								{
									OFFSET 0.000000 0.000000 0.000000
								}
							}
						}
					}
				}
				JOINT joint_10
				{
					OFFSET -5.580566 33.311218 83.498047
					CHANNELS 3 Zrotation Yrotation Xrotation
					JOINT joint_11
					{
						OFFSET -22.773438 160.515381 -27.138062
						CHANNELS 3 Zrotation Yrotation Xrotation
						JOINT joint_12
						{
							OFFSET 27.004395 30.848877 -267.937988
							CHANNELS 3 Zrotation Yrotation Xrotation
							JOINT joint_13
							{
								OFFSET 32.625000 14.824585 -261.518005
								CHANNELS 3 Zrotation Yrotation Xrotation
								End Site
								{
									OFFSET 0.000000 0.000000 0.000000
								}
							}
						}
					}
				}
			}
		}
	}
	JOINT joint_14
	{
		OFFSET 20.623535 -83.447632 -106.174011
		CHANNELS 3 Zrotation Yrotation Xrotation
		JOINT joint_15
		{
			OFFSET 0.661865 -23.563843 -459.915039
			CHANNELS 3 Zrotation Yrotation Xrotation
			JOINT joint_16
			{
				OFFSET -23.461670 -28.727966 -444.760971
				CHANNELS 3 Zrotation Yrotation Xrotation
				JOINT joint_17
				{
					OFFSET 178.992920 54.047363 -80.113001
					CHANNELS 3 Zrotation Yrotation Xrotation
					End Site
					{
						OFFSET 0.000000 0.000000 0.000000
					}
				}
			}
		}
	}
	JOINT joint_18
	{
		OFFSET -19.571533 84.686279 -105.380005
		CHANNELS 3 Zrotation Yrotation Xrotation
		JOINT joint_19
		{
			OFFSET -22.949951 3.639404 -459.933044
			CHANNELS 3 Zrotation Yrotation Xrotation
			JOINT joint_20
			{
				OFFSET -33.690674 4.092651 -445.010971
				CHANNELS 3 Zrotation Yrotation Xrotation
				JOINT joint_21
				{
					OFFSET 187.419678 18.953857 -76.759001
					CHANNELS 3 Zrotation Yrotation Xrotation
					End Site
					{
						OFFSET 0.000000 0.000000 0.000000
					}
				}
			}
		}
	}
}
MOTION
Frames: 7
Frame Time: 0.016667
-3305.420898 947.013245 1113.340942 -12.660748 -0.267159 -0.006587 0.390716 -1.483274 2.359852 0.231153 0.072415 -0.433659 0.282008 -0.257892 0.357260 0.023452 2.834624 -0.793342 0.000000 0.000000 0.000000 -1.269210 4.035303 0.002275 0.132583 3.998729 0.546917 -0.116311 2.502606 -0.670628 0.000000 0.000000 0.000000 0.538141 3.054449 -2.921096 -0.139688 2.856170 -3.644884 0.151351 2.498841 -0.409255 0.000000 0.000000 0.000000 -0.248455 1.984172 1.022294 -0.084370 -1.757179 -0.306336 -0.171886 -1.256657 0.302256 0.000000 0.000000 0.000000 0.546070 -0.985882 1.841137 0.615946 0.701980 0.240315 0.603583 -0.076655 0.255085 0.000000 0.000000 0.000000 
-3303.193848 947.263184 1113.392944 -12.527956 -0.091186 -0.051559 0.509622 -0.722321 2.242669 0.365290 0.021062 -0.426723 0.414182 -0.133313 0.324556 0.037153 1.875413 -0.639158 0.000000 0.000000 0.000000 -1.123678 4.456313 -0.282891 0.089481 4.495035 0.409027 0.048999 0.853321 0.597442 0.000000 0.000000 0.000000 0.419680 3.028703 -3.023279 -0.088113 2.899512 -3.472082 0.050407 1.478633 -0.507178 0.000000 0.000000 0.000000 -0.265036 1.884196 1.047122 -0.109671 -1.656555 -0.339234 -0.183536 -1.396106 0.339109 0.000000 0.000000 0.000000 0.478445 -1.050396 1.823729 0.547009 0.662427 0.277882 0.539879 -0.104963 0.231883 0.000000 0.000000 0.000000 
-3300.516602 947.480225 1113.425049 -12.349194 0.189483 -0.120808 0.670280 0.244353 2.098420 0.535664 -0.022590 -0.406731 0.580858 -0.005354 0.278745 0.068007 0.490420 -0.434484 0.000000 0.000000 0.000000 -0.756781 5.029788 -0.803361 0.105165 5.260732 0.347149 0.306489 -1.402323 2.250350 0.000000 0.000000 0.000000 0.218806 3.047858 -3.091295 -0.006678 2.999091 -3.329267 -0.074162 0.073562 -0.654127 0.000000 0.000000 0.000000 -0.295479 1.703579 1.087443 -0.151727 -1.565505 -0.355146 -0.211565 -1.534553 0.368334 0.000000 0.000000 0.000000 0.396484 -1.211831 1.840221 0.465478 0.627142 0.299708 0.462634 -0.139247 0.203730 0.000000 0.000000 0.000000 
-3296.856445 947.734863 1113.338989 -12.104618 0.836726 -0.257747 0.773348 0.774226 1.938431 0.644230 -0.046835 -0.370134 0.684612 0.072374 0.234929 0.089402 -0.919295 -0.143837 0.000000 0.000000 0.000000 -0.360198 5.474563 -1.180484 0.166702 5.845894 0.266168 0.504789 -2.765715 3.485424 0.000000 0.000000 0.000000 0.082899 3.208543 -3.005939 0.057939 3.171686 -3.422450 -0.163890 -1.050090 -0.786633 0.000000 0.000000 0.000000 -0.407732 1.215039 1.136622 -0.283891 -1.546651 -0.282003 -0.327377 -1.704186 0.367701 0.000000 0.000000 0.000000 0.378243 -1.709288 1.971443 0.454244 0.570697 0.266554 0.447833 -0.298607 0.213807 0.000000 0.000000 0.000000 
-3291.925781 948.082031 1113.069946 -11.765996 2.129057 -0.511594 0.749100 0.435953 1.752106 0.635670 -0.041917 -0.323957 0.671444 0.069845 0.207509 0.072284 -2.346501 0.365854 0.000000 0.000000 0.000000 0.082883 5.638935 -1.352949 0.233074 6.091044 0.164165 0.568646 -2.368026 4.136305 0.000000 0.000000 0.000000 0.102996 3.670221 -2.611358 0.068618 3.488352 -4.047633 -0.207121 -1.779251 -0.788849 0.000000 0.000000 0.000000 -0.663275 0.162217 1.211160 -0.574328 -1.668468 -0.050066 -0.600567 -1.885848 0.300414 0.000000 0.000000 0.000000 0.478291 -2.830425 2.305709 0.573421 0.483493 0.136679 0.549878 -0.633594 0.289508 0.000000 0.000000 0.000000 
-3286.012451 948.466858 1112.682983 -11.364389 3.790718 -0.821538 0.649925 -0.332259 1.549724 0.564232 -0.013072 -0.278560 0.596100 -0.000142 0.191253 0.042261 -3.785984 0.990269 0.000000 0.000000 0.000000 0.584041 5.655077 -1.447014 0.309371 6.174568 0.063842 0.573239 -1.021786 4.507250 0.000000 0.000000 0.000000 0.220457 4.281205 -2.095600 0.045540 3.884936 -4.876251 -0.226866 -2.228248 -0.749148 0.000000 0.000000 0.000000 -1.002287 -1.195251 1.303939 -0.958767 -1.864734 0.272194 -0.967518 -2.075047 0.193805 0.000000 0.000000 0.000000 0.636415 -4.294955 2.738934 0.757903 0.373300 -0.053839 0.709346 -1.058449 0.397744 0.000000 0.000000 0.000000 
-3279.446533 948.782532 1112.261963 -10.961980 5.269654 -1.077280 0.555304 -0.910271 1.369275 0.496937 0.024418 -0.241380 0.525894 -0.087571 0.180780 0.032674 -4.830714 1.414706 0.000000 0.000000 0.000000 1.017879 5.631633 -1.442581 0.378999 6.171194 -0.065483 0.558284 0.304359 4.634158 0.000000 0.000000 0.000000 0.327017 4.675247 -1.805244 0.008220 4.162491 -5.244028 -0.233853 -2.086269 -0.875952 0.000000 0.000000 0.000000 -1.310123 -2.333397 1.374880 -1.308663 -1.995005 0.543378 -1.294706 -2.342520 0.128950 0.000000 0.000000 0.000000 0.759419 -5.509526 3.085682 0.906587 0.249256 -0.229899 0.834465 -1.514161 0.494919 0.000000 0.000000 0.000000 
